<?xml version="1.0" encoding="UTF-8"?>
<svg id="Layer_1" data-name="Layer 1" xmlns="http://www.w3.org/2000/svg" viewBox="0 0 40.45 51.37">
  <defs>
    <style>
      .cls-1 {
        fill: #0083ca;
      }

      .cls-2 {
        fill: #f2845f;
      }

      .cls-3 {
        fill: #ffc60b;
      }

      .cls-4 {
        fill: #903f98;
      }

      .cls-5 {
        fill: #ed1c24;
      }

      .cls-6 {
        fill: #00a651;
      }

      .cls-7 {
        fill: #ec008c;
      }

      .cls-8 {
        fill: #ff0;
      }
    </style>
  </defs>
  <path class="cls-1" d="m39.51,42.14c-.61-.95-1.45-1.54-2.47-1.76-.6-.12-1.45-.32-2.55-.61-1.11-.29-2.31-.66-3.63-1.07-1.3-.41-2.68-.86-4.1-1.36-1.42-.51-2.72-1.02-3.94-1.57-1.2-.54-2.25-1.1-3.13-1.68-.89-.57-1.48-1.14-1.76-1.7.15-.41.67-1.16,1.6-2.21.92-1.07,2.05-2.3,3.38-3.7,1.33-1.39,2.77-2.87,4.3-4.44,1.55-1.57,3.05-3.06,4.48-4.45,1.43-1.41,2.69-2.65,3.81-3.75,1.1-1.1,1.87-1.87,2.34-2.33.92-.89,1.38-2.05,1.38-3.47s-.45-2.52-1.36-3.41c-.89-.89-1.99-1.35-3.26-1.35s-2.43.44-3.35,1.29c-.64.6-1.51,1.42-2.61,2.44-1.11,1.02-2.3,2.17-3.6,3.44-1.29,1.26-2.64,2.59-4.01,4-1.39,1.39-2.68,2.74-3.89,4.03-1.2,1.29-2.27,2.47-3.22,3.56v19.52c.59.42,1.27.86,2.05,1.32,1.17.69,2.46,1.38,3.84,2.05,1.39.67,2.84,1.3,4.36,1.9,1.52.59,3.02,1.13,4.48,1.6,1.45.45,2.81.83,4.1,1.11,1.27.28,2.36.42,3.24.42,1.29,0,2.34-.47,3.21-1.41.85-.94,1.27-2.05,1.27-3.35,0-1.08-.31-2.11-.94-3.06Zm-13.54-31.19c.32-.41.73-.86,1.24-1.38.51-.5,1.08-1.01,1.68-1.54.6-.51,1.2-1,1.79-1.42.59-.42,1.11-.79,1.6-1.07.47-.28.83-.41,1.08-.41.29,0,.51.09.67.28.16.18.23.42.23.72,0,.41-.19.72-.59.91-.75.32-1.43.76-2.05,1.3-.61.54-1.2,1.11-1.76,1.71-.56.6-1.1,1.16-1.65,1.67-.54.53-1.13.94-1.73,1.24-.28,0-.51-.12-.72-.34-.19-.23-.29-.47-.29-.73,0-.22.16-.54.48-.95Z"/>
  <g>
    <path class="cls-7" d="m.87,51.37c.04-.23-.06-4.26,0-4.48h12.83c-.05,1.03-.1,2.84-.17,4.26"/>
    <path class="cls-3" d="m3.7,16.67v30.21H.87C.43,32.06.25,25.26.09,15.68l3.61.99Z"/>
    <path class="cls-6" d="m13.7,46.89h-.71v-27.65l.8.22c0,8.33.3,12.54-.09,27.43Z"/>
    <path class="cls-8" d="m13.8,19.45l-.8-.22-4.57-1.26-4.72-1.3L.09,15.68h0s-.02-.07-.03-.11l3.65,1.03,4.72,1.33,4.57,1.29.8.23Z"/>
    <polygon class="cls-5" points="10.46 7.48 4.37 7.48 8.37 0 8.42 .19 10.46 7.48"/>
    <polygon class="cls-1" points="13.83 19.47 13.8 19.45 12.99 19.24 8.42 17.98 3.7 16.67 .09 15.68 .08 15.68 0 15.66 .05 15.57 3.7 8.74 4.37 7.48 10.46 7.48 12.99 16.5 13.83 19.47"/>
    <polygon class="cls-4" points="8.42 17.98 8.42 46.89 3.7 46.89 3.7 16.67 8.42 17.98"/>
    <polygon class="cls-2" points="12.99 19.24 12.99 46.89 8.42 46.89 8.42 17.98 12.99 19.24"/>
  </g>
</svg>