<?xml version="1.0" encoding="UTF-8"?>
<svg id="Layer_1" data-name="Layer 1" xmlns="http://www.w3.org/2000/svg" xmlns:xlink="http://www.w3.org/1999/xlink" viewBox="0 0 63.66 39.36">
  <defs>
    <style>
      .cls-1 {
        fill: #0083ca;
      }

      .cls-2 {
        fill: #f2845f;
      }

      .cls-3 {
        fill: #593901;
      }

      .cls-4 {
        fill: #ffc60b;
      }

      .cls-5 {
        fill: #2e3192;
      }

      .cls-6 {
        fill: url(#Spectrum_);
        fill-rule: evenodd;
      }

      .cls-7 {
        fill: #00afab;
      }

      .cls-8 {
        fill: none;
      }

      .cls-9 {
        fill: #fff200;
      }

      .cls-10 {
        fill: #903f98;
      }

      .cls-11 {
        fill: #ed1c24;
      }

      .cls-12 {
        fill: #00a651;
      }

      .cls-13 {
        fill: #ec008c;
      }

      .cls-14 {
        fill: #ec148e;
      }

      .cls-15 {
        fill: #ff0;
      }
    </style>
    <linearGradient id="Spectrum_" data-name="Spectrum " x1="32.73" y1="28.43" x2="36.06" y2="28.43" gradientUnits="userSpaceOnUse">
      <stop offset="0" stop-color="#00a8de"/>
      <stop offset=".2" stop-color="#333391"/>
      <stop offset=".4" stop-color="#e91388"/>
      <stop offset=".6" stop-color="#eb2d2e"/>
      <stop offset=".8" stop-color="#fde92b"/>
      <stop offset="1" stop-color="#009e54"/>
    </linearGradient>
  </defs>
  <g>
    <polygon class="cls-1" points="26.04 25.16 26.02 26.33 23.75 26.3 23.54 25.16 26.04 25.16"/>
    <polygon class="cls-2" points="26.02 26.33 25.99 28.22 24.09 28.15 23.75 26.3 26.02 26.33"/>
    <polygon class="cls-13" points="25.99 28.22 25.95 30.31 24.49 30.31 24.09 28.15 25.99 28.22"/>
    <polygon class="cls-5" points="25.95 30.31 25.91 32.65 24.91 32.65 24.49 30.31 25.95 30.31"/>
    <polygon class="cls-14" points="25.91 32.65 25.87 35.11 25.37 35.11 24.91 32.65 25.91 32.65"/>
    <path class="cls-3" d="m29.25,25.16h-5.71s-.03-4.02,1.41-4.76c.33-.19.73-.32,1.14-.35,1.36-.13,2.9.84,3.16,5.11Z"/>
    <polygon class="cls-11" points="29.25 25.16 28.91 26.37 26.02 26.33 26.04 25.16 29.25 25.16"/>
    <polygon class="cls-7" points="28.91 26.37 28.38 28.3 25.99 28.22 26.02 26.33 28.91 26.37"/>
    <polygon class="cls-10" points="28.38 28.3 27.83 30.31 25.95 30.31 25.99 28.22 28.38 28.3"/>
    <polygon class="cls-9" points="27.83 30.31 27.18 32.65 25.91 32.65 25.95 30.31 27.83 30.31"/>
    <polygon class="cls-1" points="27.18 32.65 26.5 35.11 25.83 37.55 25.82 37.57 25.37 35.11 25.87 35.11 25.91 32.65 27.18 32.65"/>
    <polyline class="cls-8" points="26.04 25.16 26.09 21.79 26.11 20.92"/>
  </g>
  <path class="cls-1" d="m11.51,16.34c0,.4-.13.74-.39,1.02-.26.28-.58.43-.97.43-.27,0-.6-.04-.99-.13s-.8-.2-1.25-.34c-.44-.14-.9-.3-1.36-.49-.46-.18-.91-.37-1.33-.58s-.81-.41-1.17-.62c-.36-.21-.65-.41-.87-.59.04.25.1.51.17.77.07.27.11.52.11.77,0,.19-.04.38-.11.56-.08.18-.18.35-.3.49-.12.15-.27.26-.44.35-.17.08-.35.13-.54.13-.31,0-.6-.11-.88-.32-.27-.21-.45-.47-.52-.79-.25-1.04-.42-2.12-.52-3.23-.1-1.11-.15-2.2-.15-3.27,0-.9.04-1.8.13-2.71s.22-1.81.4-2.68c.08-.33.25-.59.53-.77.28-.19.57-.28.89-.28.19,0,.37.04.53.12.16.08.3.19.42.32.12.14.21.29.28.47.07.18.11.37.11.57,0,.3-.02.62-.07.98-.05.36-.1.73-.15,1.13-.05.4-.11.8-.15,1.21s-.07.81-.07,1.21c.12-.19.32-.45.61-.78s.61-.69.98-1.08c.37-.39.76-.8,1.18-1.23s.83-.83,1.22-1.22c.39-.39.76-.73,1.09-1.05.33-.31.6-.56.79-.74.28-.26.62-.39,1.02-.39s.72.14,1,.41c.28.27.41.62.41,1.04s-.14.78-.42,1.06c-.14.14-.38.37-.71.71-.33.33-.72.71-1.16,1.14-.44.43-.89.88-1.36,1.35-.47.48-.91.93-1.31,1.35-.41.43-.75.8-1.03,1.12s-.44.55-.49.67c.09.17.26.34.53.52.27.18.59.35.96.51.37.16.77.32,1.2.48.43.15.85.29,1.25.42.4.12.77.23,1.1.32.33.09.59.15.78.19.31.07.56.25.75.54s.28.6.28.93ZM1.86,5.16c.15,0,.27.05.36.15.09.1.19.15.28.15.08,0,.14-.03.2-.09.06-.06.09-.14.09-.23l-.08-.2c-.11-.1-.23-.19-.36-.26-.14-.07-.28-.1-.43-.1-.12,0-.23.02-.32.06-.1.04-.15.13-.15.26,0,.15.04.23.13.24.09.01.18.02.28.02Zm7.77-.7c0-.09-.02-.16-.07-.22s-.12-.09-.2-.09c-.08,0-.19.04-.33.13-.15.09-.31.19-.49.32-.18.13-.36.28-.54.43-.18.16-.35.32-.51.47-.16.15-.28.29-.38.42-.1.13-.15.22-.15.29,0,.08.03.15.09.22.06.07.13.1.22.1.18-.09.36-.22.53-.37.17-.16.33-.33.5-.51s.35-.35.53-.52c.19-.16.4-.3.62-.4.12-.06.18-.15.18-.27Z"/>
  <path class="cls-13" d="m42,12.29c0,.73-.14,1.35-.42,1.85-.28.51-.65.92-1.1,1.23s-.97.54-1.55.68c-.58.14-1.17.22-1.77.22-.36,0-.73-.02-1.09-.07-.37-.05-.7-.14-.99-.3-.3-.15-.54-.37-.72-.66-.19-.29-.28-.67-.28-1.14,0-.58.19-1.04.56-1.4s.83-.53,1.36-.53c.2,0,.4.03.61.09.2.06.4.09.61.09.39,0,.66-.02.8-.07s.19-.11.15-.19-.15-.19-.34-.31c-.18-.12-.39-.26-.62-.41-.39-.24-.79-.47-1.19-.68-.4-.21-.77-.46-1.1-.75-.33-.29-.61-.63-.82-1.04-.22-.4-.32-.91-.32-1.51,0-.74.16-1.43.48-2.06.32-.63.73-1.18,1.23-1.64.5-.46,1.08-.82,1.73-1.08.65-.26,1.31-.39,1.99-.39.3,0,.6.04.88.11.28.08.54.19.77.35s.41.36.55.61c.14.25.21.56.21.92,0,.58-.18,1.06-.54,1.44-.36.39-.82.58-1.36.58-.16,0-.4.03-.72.08-.32.05-.6.14-.83.25s-.36.26-.39.43c-.03.17.17.37.61.6.46.27.91.53,1.35.78.44.25.83.55,1.17.89.34.34.61.75.82,1.23.21.48.31,1.07.31,1.76Zm-4.72,1.5c.1,0,.24,0,.41-.02.17-.01.35-.05.52-.09.17-.05.32-.11.44-.19.12-.08.18-.19.18-.33,0-.11-.03-.2-.09-.28s-.14-.13-.26-.13c-.26,0-.54.04-.84.13s-.6.12-.89.12c-.12,0-.2.04-.25.12-.05.08-.08.17-.08.26,0,.21.1.33.31.36.21.03.39.05.53.05Zm2.29-10.03c.09,0,.15-.03.21-.1.05-.07.08-.15.08-.24,0-.2-.06-.33-.18-.39-.12-.06-.26-.09-.42-.09-.12,0-.32.02-.61.07s-.58.11-.87.19-.54.19-.77.31-.34.26-.34.43c0,.11.03.2.1.27.07.08.15.11.27.11.04,0,.14-.03.3-.09.16-.06.36-.12.6-.19.24-.07.5-.13.78-.19.28-.06.57-.09.85-.09Z"/>
  <path class="cls-11" d="m11.77,35.2c-.49,0-.85-.12-1.07-.36-.22-.24-.36-.54-.42-.89-.06-.35-.08-.73-.04-1.15s.05-.79.05-1.13c0-.22,0-.56,0-1.01,0-.45.02-.95.03-1.51.02-.55.03-1.13.05-1.74s.04-1.18.08-1.72.07-1.02.12-1.45c.05-.42.09-.73.15-.92.12-.43.33-.8.62-1.1.29-.3.67-.45,1.12-.45.29,0,.57.08.84.25.27.16.53.38.77.64.25.26.48.56.7.89.22.33.43.66.63,1.01.2.34.38.67.55.99s.32.59.45.81c.55-.71,1.09-1.42,1.63-2.14.54-.72,1.11-1.41,1.71-2.05.14-.14.3-.25.49-.33.19-.08.38-.11.57-.11.25,0,.49.07.73.2.24.13.42.32.54.55.06.1.11.43.17.96.06.53.11,1.18.15,1.92s.09,1.55.13,2.41.07,1.69.1,2.47c.03.78.05,1.47.07,2.06.02.59.03,1,.03,1.21,0,.48-.15.86-.45,1.14-.3.28-.67.41-1.12.41-.42,0-.74-.16-.98-.47-.24-.32-.37-.68-.39-1.08-.02-.43-.05-.93-.07-1.48-.03-.55-.05-1.12-.07-1.69-.02-.58-.04-1.14-.06-1.69-.02-.55-.02-1.05-.02-1.48-.18.24-.39.52-.65.86-.25.34-.52.67-.8.99-.28.32-.58.59-.88.81-.3.22-.6.33-.9.33-.37,0-.7-.11-1-.34-.3-.23-.56-.51-.8-.84-.24-.33-.46-.68-.65-1.06-.2-.38-.38-.71-.54-.99-.01.26-.02.6-.03,1.01-.01.42-.02.85-.03,1.3-.01.45-.02.89-.03,1.3s-.02.75-.02,1.01c0,.35.02.74.07,1.15.04.42.04.81,0,1.17-.05.36-.19.67-.4.92-.22.25-.59.37-1.1.37Zm2-11.51c.09,0,.16-.03.22-.1s.08-.14.08-.22l-.08-.21s-.11-.11-.21-.2c-.09-.09-.2-.18-.31-.27-.11-.09-.22-.18-.32-.25-.1-.07-.18-.11-.23-.11-.08,0-.14.03-.19.1-.05.06-.08.14-.08.22,0,.04.05.11.16.22.11.11.23.23.36.35s.26.23.38.33.19.14.23.14Zm7.68-.48c.09,0,.17-.03.23-.1s.09-.14.09-.24l-.08-.19c-.16-.13-.32-.24-.5-.33-.18-.09-.37-.13-.59-.13-.09,0-.17.03-.23.08-.06.05-.09.13-.09.24,0,.09.04.16.12.2s.17.08.28.11c.11.03.21.07.33.1.11.04.2.09.27.16.06.06.12.09.18.09Z"/>
  <path class="cls-6" d="m35.2,17.64s-.03-.02-.06-.05c-.02.02,0,.04.02.06,0-.02.03,0,.05,0Zm-.97.07s-.02,0-.05,0c0,.04.04.02.05,0Zm1.43.65s.05-.06,0-.07c.01.03-.03.05,0,.07Zm.26.61s.04,0,.04-.05c-.01,0-.02,0-.03,0,.01.03-.04.04,0,.06Zm-.07.1s.03,0,.04,0c0-.03,0-.08-.04-.08,0,.03-.03.06,0,.08Zm-.08.43s.03-.06,0-.07c.02.03-.01.05,0,.07Zm-1.08,1.15s0-.02-.02-.03c.01.04-.03.02-.02.05.03-.02.05.01.06-.02h-.03Zm-1.76,1.16s0-.01,0-.02c-.03,0-.02.01-.02.04.08,0,.05-.08,0-.02Zm.33.06s-.02,0-.03,0c0,.01-.01.03,0,.05.03,0,.04,0,.04-.04Zm.06.1s.01-.05,0-.05c-.01,0,0,.14,0,.05Zm-.26,0s-.03.01-.06,0c-.01.05.06.03.06,0Zm1.58.2s-.01.02,0,.04c.01,0,.02,0,.03,0,.01-.01,0-.05-.02-.05Zm-1.42.11s-.02-.03-.04-.04c0,.02-.02,0-.03,0,0,.02.02.03.03.05,0-.03.03.02.04,0Zm-.17.15s.08.04.1,0c-.04.02-.07-.01-.1,0Zm2.99,2s0-.03-.03-.03c0,.01-.01.02-.02.04.02,0,.04.02.05,0Zm-1.32,1.01s.07.03.07,0c-.03,0-.06-.03-.07,0Zm-.05,0s0,.05.03.05c0-.03-.01-.04-.03-.05Zm.52,1.14s-.06-.07-.06-.04c.02.02.03.04.06.04Zm-2,3.71s.01.05.04.05c0-.03-.01-.05-.04-.05Zm.69,8.99s-.02.02-.04.02c-.01.05.03.06.08.07.03-.03.02-.09-.04-.09Zm2.15-12.28s.01.06-.02.05c0-.03,0-.05,0-.07.01.07-.03.07-.06.1,0,.06-.06.21-.06.27,0-.03.01-.03.04-.03,0,.05,0,.13,0,.15-.02,0-.04-.05-.06-.02.03.06-.02.15-.05.15.02.02.02.1-.04.08.03-.07-.02-.15-.02-.24,0-.08.07-.14.05-.22.04-.13.22-.23.14-.4-.05.01-.09.01-.13,0,.04-.05.01-.1.02-.14-.03-.02-.03.05-.05.02.02-.04,0-.02-.02-.04.03-.22.03-.44.06-.69.04-.04.03-.09.04-.15.08-.18,0-.36.03-.54,0-.05.03-.09.04-.14.02-.15-.01-.34.06-.46.02-.02.01,0,.04,0,0-.02.03-.06,0-.07-.01.02-.01.05-.05.04-.01-.21-.26-.41-.07-.56-.03,0-.05,0-.06-.03-.08-.18-.03-.38-.03-.58,0-.27-.06-.55-.11-.82.08.02.13.06.18.06-.03-.03.02,0,.02-.02-.12-.04-.18-.11-.2-.23.03-.04.05-.08,0-.11,0-.02.05-.04,0-.06,0,.01,0,.04-.04.03-.02-.04-.02-.07,0-.12.01-.03.04.02.04-.02,0-.03-.05,0-.05-.04.02,0,.03.03.03,0-.01-.02-.05.01-.06-.02,0-.07.03-.11.06-.16-.02-.01-.04-.02-.05-.05.03-.05-.01-.11-.03-.14.03-.2-.08-.33-.1-.49,0-.02.02-.05.02-.08,0-.03-.02-.05-.02-.08,0-.1.04-.11.06-.17.04-.21-.1-.43-.06-.68-.03-.04-.04-.11-.08-.14.1-.14.05-.27.1-.38.02.02.04-.01.06,0,.04-.07.03-.11.03-.16,0,0,0,0,0,0v-.03s0,.02,0,.03c.03,0,.03-.04.05-.02,0,.04,0,.06-.03.06.04.01.04-.02.05.03,0-.01.01-.02.03-.02-.01-.07,0-.07-.03-.14.03.01.04,0,.05-.03-.02,0-.02,0-.02.03-.02,0-.02-.03-.04-.04,0,.01.01.05,0,.05-.04-.11,0-.08.04-.17,0,.04.03,0,.04.02-.02.02-.03.08-.06.05,0,.04.01.03,0,.05.03,0,.02.02.04.02,0-.05.02-.06.05-.08-.02-.09.08-.14.05-.17,0,.05-.02,0-.03.04,0-.07-.02-.08.04-.14-.01-.02.02-.1,0-.11,0,0,0,.04-.03.03,0-.01,0-.02,0-.03.02,0,.02-.03.03-.05-.02,0-.02.01-.04,0,0-.03.07-.05.03-.08-.02.05-.05.09-.07.13,0-.06.02-.09-.04-.11-.01.05.03.1-.02.14.05,0,.03,0,.07-.02,0,.07,0,.11,0,.14-.03.03-.02-.04-.06-.03,0,.05.04,0,.03.06.03.01,0-.03.04-.02,0,.02-.01.04,0,.07-.03-.04-.03,0-.06.02,0-.03,0-.05-.02-.06,0,0-.02,0-.03,0,.03-.03-.03,0-.03-.03.03,0,0-.06,0-.09,0,.01-.03,0-.04,0,.03-.03.02-.06.02-.1.04,0,.05,0,.05-.05-.03-.01-.05.03-.06,0,.01,0-.06-.05,0-.08.01,0,0,.05.03.04,0-.06.06-.05.08-.02,0-.04,0-.06.02-.08,0-.02-.04,0-.04-.03.04-.03.05-.08.07-.13-.03.01-.04-.01-.06,0,0-.03.04-.03.05-.06,0-.02-.03,0-.03-.03.03,0,.04-.03.05-.06-.02,0-.03.03-.04,0,.01-.03,0-.05,0-.08-.01-.03-.04.02-.05,0,0-.03,0-.02,0-.05-.05,0-.02,0-.04-.03,0-.04.04-.04.05-.08-.02-.02-.04.05-.06.07-.02,0,0-.03-.02-.03-.02.05-.03-.01-.06.04.04-.1-.01-.09,0-.14-.04.01,0,.06-.05.09.03-.06-.02-.1,0-.14-.04-.01-.05.06-.07.03.02-.02.03-.05.04-.09-.03,0-.01.04-.05.03,0-.03,0-.07-.03-.07-.03,0,.01.07-.03.06,0-.07-.07-.16,0-.2-.03-.01-.06,0-.08-.05,0-.03.05-.02.04-.06-.03,0-.03.01-.06,0,0-.03.02-.04,0-.07-.03,0-.05-.02-.06.02.01,0,.03,0,.04,0-.04,0,0,.04-.02.06-.03-.04-.06-.06-.06-.09-.05,0,.01.07-.03.07,0-.05,0,.01-.03,0,0-.02.03-.06,0-.07-.02.04-.07.06-.09.1.01-.03,0-.06-.02-.07,0,.03.02.03,0,.06-.05.03-.1.03-.16.06.02.03,0,.04,0,.08.01,0,.05.03.02.04-.03-.05-.06-.03-.11-.04,0,0,.01,0,0,.02-.03-.01-.03-.04-.06,0,0-.04-.06-.08-.07-.04-.04-.07-.04-.12-.1-.15.02,0,.05,0,.05-.03-.01,0-.05.01-.05,0,.05.01,0-.08.05-.03.02-.03-.03-.05-.06-.07.01.08-.01.08-.03.13-.01,0,0-.02,0-.04-.04.01-.06.03-.08,0,0,.02.01.02,0,.04-.02,0-.02.02-.05.02-.03,0,.02-.03-.02-.02-.02,0-.04,0-.05.02.02,0,.02.02,0,.03-.03,0-.02.01-.05,0,0-.02,0-.03-.02-.04-.01,0-.04.05-.06.02,0-.03.04.03.03-.02-.02-.03-.03.02-.05.02-.02-.04.01-.03,0-.06-.04.03-.05.04-.09.07,0-.03.04-.03.05-.06-.03.02,0-.03-.03-.03-.01.03,0,.09-.05.1,0-.02.03-.03,0-.03,0,0-.01,0-.01,0,0,0,0,0,0,.02-.01.04-.09.03-.1,0-.03.06-.07,0-.16.07-.01-.02-.05.04-.1,0-.01.02-.02.05-.04.07-.01-.02-.05-.01-.05-.05.02.01.02.01,0,0-.02-.03-.01.05-.03.06-.02,0,0-.03-.02-.03-.04.05-.04.08-.09.12,0-.01,0-.08,0-.05,0,.06-.03.08-.06.1-.02-.01.01-.04,0-.04-.03.03-.02.13-.06.11-.02.08-.06.07-.09.14.03.04-.01.15-.06.16,0,.08-.09.08-.07.15-.02,0-.02-.01-.03,0,.02.04-.04.08-.05.13-.03-.03-.03.02-.06.02,0,0-.04,0-.03,0-.04-.01-.03-.05-.07-.09,0,.14-.05.31-.03.44-.02-.05-.02-.03-.06-.02,0,.05.03.08,0,.11.11.15.07.44.18.58.01.05-.03.05-.02.1.01.03.05.04.07.06-.02-.07.05-.07.06-.11v.13s.08.09.14.12c-.02.05,0,.02.02.04-.04.13.11.14.12.26.01-.02,0,.02.04,0,.13.14.1.42.15.64.05.26-.02.56-.11.75,0-.04-.05,0-.06,0,0,.04.02.11.06.13,0-.04-.03-.09-.03-.11,0,.01.02,0,.04,0,.03.08-.02.13,0,.2-.04,0-.05,0-.06.03-.02.02.04.05.02.07-.06,0-.06-.06-.12-.07-.04,0-.05.04-.08.06-.03,0-.01-.05-.05-.04,0,.03.01.05.04.06.04,0,.05-.03.07-.05.02,0,.02.02.02.05.03.02.02,0,.06,0-.03.06.09.03.08.1-.03.06-.03.13-.06.18.02-.03-.05,0,0,.02-.03.01-.05-.03-.05,0,0,.02.03,0,.03.03-.05.28.03.48.03.72,0,.11-.1.19-.14.31-.05.17.02.3.04.47,0,.1-.02.2,0,.29.01.06.04.21.04.31,0,.11-.07.22-.02.35.1.22.04.5.1.72-.05.06.01.19-.02.26.02.13.01.28.03.43.01.12,0,.22,0,.33.08.14.11.35.13.53.01.12,0,.25,0,.36,0,.28.04.63.03.87.05.14-.02.38.06.54,0,.03-.01.05-.02.07.02.01.01.04.03.06-.02.23-.05.48-.04.71,0,.09-.03.18,0,.25-.05.1-.05.23-.04.32.01.07-.04.14-.05.21,0,.07.04.13.06.21,0,.05-.03.16,0,.27,0,.02.02.03.02.05,0,.1,0,.14-.02.22,0,.05.02.1.02.15,0,.12.01.27,0,.4-.01.11-.06.24-.06.33,0,.1.07.18.07.27,0,.04-.02.09-.04.14-.03.16-.09.29,0,.46-.04.11-.03.22-.05.34-.01.07-.06.14-.06.21-.04.37.15.66.17,1.04.02.08.03.17.05.24,0,.06,0,.12,0,.17,0,.05.04.09.06.14.03.1-.02.22.03.32-.18.19-.11.45-.04.67.01.03.03.04.04.08,0,.05-.04.12-.03.2,0,.02.02.04.02.06,0,.12-.03.22-.03.31,0,.06.03.11.04.16.01.12-.02.22-.02.34-.04.09-.09.22-.09.34-.02,0-.03.01-.04.02.02,0,.01.02.01.04.01,0,.02,0,.03,0,0,.03,0,.05.01.07-.01.01-.02.03-.03.06,0,.02.04.03.02.05,0,0-.05,0-.03.03.02,0,.05.02.07.02,0,0,0,0,0,.01-.01.05,0,.09,0,.14,0,.03,0,.06,0,.09-.12.06-.09.2.03.25.07.12.21.24.45.22-.03.11-.01.21-.11.28.04,0,.08,0,.08.02-.07.14.14.24.26.15-.01-.15-.08-.25.13-.29,0-.02.02-.06-.01-.07-.02.03.02.04-.04.05-.01-.03-.03-.06-.04-.09,0-.02.07-.05.03-.08-.03.04-.02-.01-.07,0,0-.03-.03-.05-.07-.06,0,.02-.09.03-.11.02.25-.05.14-.37.24-.5-.03-.02-.08-.02-.09-.05.07-.03.07-.13,0-.16.06-.03.04-.1-.02-.12,0-.02,0-.05.01-.08.01-.01.02-.03,0-.06,0,0,0,0,0,0,0-.02,0-.04,0-.06-.07-.07-.05-.19-.1-.27.03-.02-.02-.05,0-.11-.07-.08-.05-.16-.03-.28.13-.12.03-.32-.06-.46-.02-.04-.07-.06-.08-.1-.07-.16.07-.35.06-.49,0-.12-.06-.19-.11-.31-.05-.02-.1-.04-.13-.09.05-.1.17-.12.26-.18.14-.19.07-.42-.06-.63-.04-.06-.1-.15-.11-.22-.02-.11.04-.25.06-.37.03-.15.1-.32.09-.44-.01-.13-.12-.23-.16-.35-.04-.17.05-.35,0-.54-.09-.14-.11-.32-.07-.52.02,0,.02-.01.04,0,0-.07,0-.11.03-.15-.02-.05,0-.1-.02-.16.05-.05,0-.13,0-.2.02-.18.01-.38,0-.59,0-.05-.03-.1-.03-.15,0-.08.03-.16.03-.24,0-.01-.02-.02-.02-.03-.04-.2.03-.4,0-.59.07-.06,0-.17,0-.26,0-.1.04-.2,0-.3.01-.01.01-.04.03-.05-.01-.28.02-.59-.05-.82.06-.25-.02-.53,0-.81,0-.03-.03-.03-.03-.06.03-.17.03-.34,0-.49-.02-.17.03-.39.05-.6.01-.12-.04-.24-.07-.35.02-.01,0-.05.02-.07-.12-.17-.03-.37-.04-.58,0-.12-.06-.2-.05-.32.03-.2-.09-.35-.11-.53.25-.27-.11-.71.06-1.03,0-.02-.02-.02,0-.05.1-.26-.15-.43-.17-.64-.02-.12.05-.23.09-.37.12-.08.17-.27.25-.41.08-.14.06-.34.09-.54-.01-.13-.08-.27-.08-.41,0-.07.05-.13.04-.19.15-.15.18-.41.26-.61.02.02.04.03.06.03,0,.06-.03.01-.04.05.06.01.04.07.1.05-.01-.05-.05-.02-.06-.1.05.01.03,0,.04-.02.03.01.02,0,.06,0-.01-.03,0-.06.02-.07.01.06.06.08.04.14,0,.03.04-.03.04,0-.02,0-.03.04,0,.04,0-.01,0-.03,0-.03.03.06.08.01.14.02,0-.05.03-.05.06-.07-.03,0-.04,0-.05-.03.06,0-.03-.05,0-.06.02,0,.03.04.05.05.03,0,0-.04.05-.03,0,.04.02.07.02.11.03,0,.06,0,.08-.02.06.08.14.15.17.25.02.05.03.13.04.18,0,.09-.04.16-.03.24,0,.04.05.08.06.13.01.04,0,.08.02.12.02.06.07.12.08.19.01.07,0,.16,0,.24.01.17.06.38.07.59,0,.02.03,0,.03.03,0,.21.02.44.1.6-.05.09,0,.24.02.35-.05.14-.03.28.04.41-.04.22-.07.43.03.61-.01.04,0,.13,0,.18-.11.22-.02.49-.05.73-.04.07,0,.17-.04.26.02.01,0,.05.02.07-.08.14-.04.3-.05.43,0,.03-.02.18-.03.2,0,.02-.02,0-.03.03-.03.13-.02.26,0,.39-.04.19-.04.37-.08.56-.05.2-.13.4-.07.63.07.06.03.13.04.2.03.24.34.33.5.17.03-.08.07-.15.15-.18,0-.1.02-.14.03-.25-.06-.04-.06-.13-.08-.18.06-.02.04-.06.07-.11.02,0,.03.02.06.02.02-.02,0-.05.04-.08.01.02.01.05.04.06.06-.23.07-.46.13-.67-.03,0-.02-.04-.05-.05Zm-.38-7.5s.02,0,.03,0c0,.01-.01.02-.02.04-.02,0,0-.03,0-.05Zm-.06-.48c-.02.05,0,0,0,.06-.03,0-.04-.01-.05-.04.03,0,.02-.03.05-.02Zm-1.56-1.11s-.03-.04-.03,0c0,.03-.01-.02,0-.03.02,0,.05,0,.04.03Zm.06.02s-.02-.1-.04-.05c-.03-.03.03,0,.02-.04.02.01.04.06.02.09Zm.51,2.73s-.05,0-.11,0c0,0,.02-.04,0-.03,0,0,0,0,0-.02,0,0,0,0,0,0,.02,0,0,.03.02.04.07-.03.02-.04.09-.06,0,.06-.05.03,0,.08Zm1.21,6.51s0,.08-.04.09c.01-.04-.02-.05-.02-.08.01-.01.03-.01.06,0Zm-1.8-9.38s-.01,0,0,0h0Zm1.78,1.78s0-.08.05-.09c0-.02,0-.04-.03-.05.01.04-.01.08-.02.12,0-.01-.02-.02-.02,0,.02,0,0,.03.02.03Zm-2.59,2.6s.02-.05,0-.06c0,0,0,.01,0,0-.02,0-.05-.03-.06,0,.01,0,.01.02,0,.03.03,0,.04.01.06.02Zm2.71,5.65s.02-.04.02-.06c-.05-.01-.02.06-.02.06Zm-1.27-10.27s-.03.04,0,.05c.01-.02.07,0,.13-.02,0-.02-.07,0-.07-.02,0-.03.03-.01.02-.05-.05-.02-.12,0-.13.05.03,0,.03-.02.06,0Zm-.25.09c.06-.05.12-.07.18-.08,0-.07-.08-.02-.12-.04-.02.02,0,.03,0,.06-.04,0-.09,0-.12.04,0-.02,0-.03-.02-.04-.01.05-.08.05-.08.08.07.03.06-.04.16-.02Z"/>
  <path class="cls-10" d="m26.82,16.85c-.76,0-1.51-.1-2.23-.31-.72-.21-1.37-.53-1.93-.95s-1.01-.97-1.35-1.63-.51-1.44-.51-2.34c0-.71.13-1.38.38-2.01.26-.63.6-1.19,1.04-1.66.44-.47.95-.85,1.54-1.13.59-.28,1.23-.42,1.91-.42s1.4.15,2.08.45c.02-.21.04-.47.05-.77s.05-.61.09-.94c.05-.33.1-.65.18-.97.07-.32.17-.61.31-.86.13-.25.3-.45.49-.61.19-.15.43-.23.72-.23.38,0,.69.14.94.41.25.27.37.6.37.99,0,.18-.02.38-.05.58-.04.2-.08.41-.12.61s-.09.41-.14.61-.08.4-.11.58c-.05.37-.09.75-.11,1.13-.02.38-.03.76-.03,1.13.14.12.3.23.46.35.16.11.32.24.46.38.14.14.26.29.35.46.09.17.14.36.14.57,0,.17-.03.34-.09.51s-.15.32-.25.46c-.11.13-.23.24-.38.33-.15.09-.31.13-.48.13.06.28.11.55.14.82.03.27.06.54.09.82.19-.01.38.02.55.08.17.06.33.16.46.29.13.13.24.28.31.46.08.18.12.37.12.57,0,.32-.1.6-.31.83-.2.23-.47.42-.8.58-.33.16-.69.28-1.09.37-.4.09-.8.16-1.21.21-.4.05-.78.08-1.13.1-.35.02-.63.02-.85.02Zm-1.09-7.6c-.26,0-.48.03-.67.1s-.36.15-.51.27c-.28.22-.5.5-.67.82-.17.32-.27.65-.31.99-.03.34.01.68.14,1.01s.34.62.64.87c.19.15.4.27.63.37s.46.17.7.22c.23.05.46.09.69.11.22.02.43.03.61.03.34,0,.67-.02,1.01-.05l.09-.05c0-.23-.01-.52-.03-.86-.02-.34-.05-.68-.08-1.03-.04-.35-.08-.69-.12-1.02s-.1-.6-.16-.81c-.3-.31-.59-.55-.88-.72s-.65-.26-1.08-.26Zm.18-1.94c.2,0,.4.05.59.14s.36.14.53.14c.08,0,.15-.03.21-.08s.08-.12.08-.21c0-.1-.06-.18-.18-.25-.12-.07-.25-.13-.4-.17-.15-.04-.31-.08-.46-.1s-.27-.03-.34-.03c-.08,0-.22.01-.4.03-.19.02-.38.06-.57.1s-.36.11-.51.18c-.15.08-.22.17-.22.27,0,.09.02.16.07.21s.11.08.19.08c.21,0,.44-.05.69-.16.25-.11.49-.16.73-.16Zm1.53,7.76c.07,0,.18,0,.32,0,.14,0,.29-.02.44-.04.15-.02.28-.06.39-.11.11-.05.17-.13.17-.23,0-.09-.03-.16-.09-.22-.06-.06-.13-.09-.21-.09-.21,0-.43.02-.66.06-.22.04-.45.06-.69.06-.14,0-.21.09-.21.26,0,.18.06.28.18.3.12.02.24.02.37.02Z"/>
  <path class="cls-2" d="m33.25,35.15c-.53,0-.93-.17-1.19-.51-.26-.34-.45-.75-.55-1.23s-.15-.99-.14-1.51c0-.52.01-.97.01-1.34,0-1.04.03-2.09.1-3.14.07-1.05.19-2.09.38-3.1.04-.2.12-.39.24-.56s.25-.33.42-.47.34-.25.54-.33c.2-.08.39-.13.58-.13.25,0,.47.04.66.11.19.08.39.19.59.32.39-.26.8-.46,1.23-.6.43-.14.88-.21,1.35-.21.74,0,1.37.14,1.89.43.52.28.94.66,1.28,1.14s.59,1.03.78,1.65c.18.62.32,1.27.4,1.93.09.67.14,1.34.15,2s.02,1.29.02,1.85c0,.38-.02.76-.05,1.14-.04.38-.12.71-.26,1s-.34.53-.61.7c-.27.18-.64.26-1.1.26-.22,0-.44-.05-.65-.15-.22-.1-.41-.24-.58-.41-.17-.18-.3-.38-.4-.6-.1-.22-.15-.45-.15-.68,0-.54,0-1.08.01-1.64,0-.55,0-1.1-.03-1.66-.04-.88-.17-1.52-.38-1.95-.21-.42-.46-.63-.74-.63s-.57.21-.86.62-.54,1.01-.76,1.8c-.13.46-.2.92-.2,1.38s.02.93.07,1.45c.04.52.03,1.01-.05,1.46-.08.45-.26.83-.55,1.13-.29.3-.76.45-1.42.45Zm4.13-11.35c.31,0,.58.06.81.17.23.12.44.24.61.38.18.14.32.26.43.38.11.11.19.17.25.17.1,0,.2-.03.3-.1.09-.07.14-.16.14-.29,0-.2-.1-.39-.31-.58-.2-.18-.45-.34-.73-.48-.28-.14-.57-.25-.87-.32s-.52-.12-.68-.12c-.13,0-.28.01-.44.04s-.24.13-.24.33c0,.26.08.4.24.4s.32.01.48.01Z"/>
  <path class="cls-1" d="m48.95,34.22c-.74,0-1.46-.1-2.16-.3-.7-.2-1.32-.51-1.87-.92s-.98-.94-1.31-1.58-.5-1.4-.5-2.27c0-.69.12-1.34.37-1.95.25-.61.58-1.15,1.01-1.61.42-.46.92-.82,1.5-1.09.57-.27,1.19-.41,1.85-.41s1.35.15,2.01.44c.02-.21.04-.46.05-.75s.04-.59.09-.91c.04-.32.1-.63.17-.94.07-.31.17-.59.3-.83.13-.24.29-.44.47-.59.19-.15.42-.22.7-.22.37,0,.67.13.91.4.24.26.36.58.36.96,0,.18-.02.36-.05.56-.03.2-.07.39-.12.59s-.09.39-.13.59-.08.38-.11.56c-.05.36-.08.73-.1,1.1-.02.37-.03.74-.03,1.1.14.11.29.23.44.33.16.11.31.23.44.37.14.13.25.28.34.44.09.16.13.35.13.55,0,.17-.03.33-.09.5s-.14.31-.24.44c-.1.13-.23.24-.37.32-.14.08-.3.12-.47.12.06.27.1.53.13.79.03.26.06.52.09.79.19-.01.36.02.53.08.17.06.32.16.44.28.13.12.23.27.3.44.07.17.11.36.11.55,0,.31-.1.58-.3.8-.2.22-.45.41-.77.56-.32.15-.67.27-1.06.36-.39.09-.78.16-1.17.2-.39.05-.76.08-1.1.09-.34.02-.61.02-.82.02Zm-1.05-7.37c-.25,0-.46.03-.64.09s-.35.15-.5.26c-.27.22-.48.48-.65.79-.17.31-.27.63-.3.96-.03.33.01.66.13.98s.33.6.62.84c.19.15.39.26.61.36s.45.17.67.22c.23.05.45.09.67.11.22.02.41.03.59.03.33,0,.65-.02.98-.05l.09-.05c0-.23-.01-.5-.03-.83-.02-.33-.05-.66-.08-1-.03-.34-.07-.67-.12-.99s-.1-.58-.16-.78c-.29-.3-.57-.53-.85-.7s-.63-.25-1.04-.25Zm.18-1.88c.2,0,.39.04.57.13s.35.13.51.13c.08,0,.15-.03.2-.08s.08-.12.08-.2c0-.09-.06-.17-.17-.24-.11-.07-.24-.12-.39-.16-.15-.04-.3-.07-.44-.09s-.26-.03-.33-.03c-.08,0-.21.01-.39.03-.18.02-.37.05-.56.1s-.35.11-.5.18c-.14.07-.21.16-.21.26,0,.08.02.15.07.2s.11.08.19.08c.21,0,.43-.05.67-.16.24-.1.47-.16.71-.16Zm1.48,7.52c.07,0,.17,0,.31,0,.14,0,.28-.02.42-.04.14-.02.27-.06.38-.11.11-.05.16-.12.16-.22,0-.08-.03-.15-.09-.21-.06-.06-.13-.09-.21-.09-.21,0-.42.02-.64.05-.22.04-.44.05-.67.05-.14,0-.21.08-.21.25,0,.18.06.27.18.29.12.02.24.02.36.02Z"/>
  <path class="cls-13" d="m63.66,29.8c0,.7-.14,1.3-.41,1.8-.27.49-.63.89-1.07,1.19s-.94.52-1.5.66c-.56.14-1.13.21-1.72.21-.35,0-.7-.02-1.06-.07-.36-.04-.68-.14-.96-.29-.29-.15-.52-.36-.7-.64-.18-.28-.27-.65-.27-1.1,0-.56.18-1.01.55-1.36s.8-.52,1.32-.52c.2,0,.39.03.59.09.2.06.39.09.59.09.38,0,.64-.02.78-.07s.19-.11.15-.19-.15-.18-.33-.3c-.17-.12-.37-.25-.6-.4-.38-.23-.76-.46-1.15-.66-.39-.21-.75-.45-1.07-.73-.32-.28-.59-.61-.8-1-.21-.39-.31-.88-.31-1.47,0-.72.15-1.38.46-1.99.31-.61.71-1.14,1.2-1.59.49-.45,1.05-.8,1.68-1.05.63-.25,1.27-.37,1.93-.37.29,0,.58.04.85.11.27.07.52.19.74.34s.4.35.53.6c.13.24.2.54.2.89,0,.56-.17,1.03-.52,1.4-.35.37-.79.56-1.32.56-.15,0-.39.03-.7.08-.31.05-.58.13-.81.24s-.35.25-.38.42c-.03.17.17.36.59.58.45.26.88.52,1.31.76.43.24.8.53,1.13.86.33.33.59.73.8,1.19.2.46.3,1.03.3,1.71Zm-4.57,1.45c.1,0,.23,0,.4-.02.17-.01.34-.04.5-.09.17-.04.31-.11.43-.19.12-.08.18-.19.18-.32,0-.1-.03-.19-.08-.28s-.14-.12-.25-.12c-.25,0-.52.04-.82.12s-.58.12-.86.12c-.11,0-.19.04-.24.12-.05.08-.07.17-.07.25,0,.21.1.32.3.35.2.03.37.04.51.04Zm2.22-9.72c.08,0,.15-.03.2-.1.05-.07.07-.14.07-.23,0-.19-.06-.32-.18-.37-.12-.06-.26-.09-.41-.09-.11,0-.31.02-.59.07s-.56.11-.84.19-.53.18-.74.3-.33.26-.33.42c0,.1.03.19.09.26.06.07.15.11.26.11.04,0,.14-.03.29-.09.15-.06.35-.12.58-.19.23-.07.48-.13.75-.19.27-.06.55-.09.83-.09Z"/>
  <g>
    <path class="cls-13" d="m13.34,18.46c.02-.08-.02-1.53,0-1.61h5.81c-.02.37-.04,1.02-.08,1.53"/>
    <path class="cls-4" d="m14.62,5.99v10.86h-1.28c-.2-5.33-.28-7.77-.36-11.22l1.64.36Z"/>
    <path class="cls-12" d="m19.15,16.85h-.32V6.91l.36.08c0,2.99.14,4.51-.04,9.86Z"/>
    <path class="cls-15" d="m19.19,6.99l-.36-.08-2.07-.45-2.14-.47-1.64-.36h0s0-.02-.01-.04l1.65.37,2.14.48,2.07.46.36.08Z"/>
    <polygon class="cls-11" points="17.68 2.69 14.92 2.69 16.73 0 16.76 .07 17.68 2.69"/>
    <polygon class="cls-1" points="19.2 7 19.19 6.99 18.83 6.91 16.76 6.46 14.62 5.99 12.98 5.64 12.98 5.64 12.94 5.63 12.96 5.6 14.62 3.14 14.92 2.69 17.68 2.69 18.83 5.93 19.2 7"/>
    <polygon class="cls-10" points="16.76 6.46 16.76 16.85 14.62 16.85 14.62 5.99 16.76 6.46"/>
    <polygon class="cls-2" points="18.83 6.91 18.83 16.85 16.76 16.85 16.76 6.46 18.83 6.91"/>
  </g>
</svg>