<?xml version="1.0" encoding="UTF-8"?>
<svg id="Layer_1" data-name="Layer 1" xmlns="http://www.w3.org/2000/svg" xmlns:xlink="http://www.w3.org/1999/xlink" viewBox="0 0 311.8 151.09">
  <defs>
    <style>
      .cls-1 {
        fill: url(#linear-gradient-2);
      }

      .cls-2 {
        fill: url(#linear-gradient-6);
      }

      .cls-3 {
        fill: url(#linear-gradient-5);
      }

      .cls-4 {
        fill: url(#linear-gradient-7);
      }

      .cls-5 {
        fill: url(#linear-gradient-3);
      }

      .cls-6 {
        fill: url(#linear-gradient);
      }

      .cls-7 {
        fill: #2e479d;
        font-family: Ravie, Ravie;
        font-size: 13.31px;
      }

      .cls-8 {
        fill: url(#linear-gradient-4);
      }
    </style>
    <linearGradient id="linear-gradient" x1="116.7" y1="50.46" x2="239.94" y2="50.46" gradientUnits="userSpaceOnUse">
      <stop offset=".02" stop-color="#da1c5c"/>
      <stop offset=".38" stop-color="#875393"/>
      <stop offset="1" stop-color="#00aeef"/>
    </linearGradient>
    <linearGradient id="linear-gradient-2" x1="165.04" y1="126.81" x2="191.04" y2="126.81" xlink:href="#linear-gradient"/>
    <linearGradient id="linear-gradient-3" x1="167.74" y1="134.95" x2="187.34" y2="134.95" xlink:href="#linear-gradient"/>
    <linearGradient id="linear-gradient-4" x1="171.38" y1="143.09" x2="183.7" y2="143.09" xlink:href="#linear-gradient"/>
    <linearGradient id="linear-gradient-5" x1="144.58" y1="77.42" x2="216.68" y2="77.42" xlink:href="#linear-gradient"/>
    <linearGradient id="linear-gradient-6" x1="0" y1="70.38" x2="149.56" y2="70.38" xlink:href="#linear-gradient"/>
    <linearGradient id="linear-gradient-7" x1="33.87" y1="15.08" x2="90.37" y2="15.08" xlink:href="#linear-gradient"/>
  </defs>
  <path class="cls-6" d="m178.32,2.96c-33.98,0-61.62,23.6-61.62,52.61,0,16.67,9.27,32.32,24.9,42.24l.5-10.43c-9.88-8.03-16.04-19.3-16.04-31.8,0-24.38,23.4-44.14,52.26-44.14s52.26,19.76,52.26,44.14c0,12.58-6.24,23.92-16.23,31.95l.44,10.43c15.75-9.89,25.14-25.71,25.14-42.39,0-29.01-27.64-52.61-61.62-52.61Z"/>
  <g>
    <rect class="cls-1" x="165.04" y="123.58" width="26.01" height="6.47" rx="1.91" ry="1.91"/>
    <rect class="cls-5" x="167.74" y="131.72" width="19.6" height="6.47" rx="1.91" ry="1.91"/>
    <rect class="cls-8" x="171.38" y="139.86" width="12.33" height="6.47" rx="1.91" ry="1.91"/>
  </g>
  <path class="cls-3" d="m212.7,38.02c-.16-3.13-2.36-5.57-5.02-5.57h-4.68c-2.13,0-4.03,1.58-4.74,3.93l-11.86,39.47c-3.35,11.61-5.61,20.37-7.24,27.99-1.61-7.78-3.77-16.53-6.93-27.99l-11.35-39.4c-.69-2.4-2.6-4.01-4.76-4.01h-4.67c-2.68,0-4.84,2.38-5.02,5.53l-1.86,32.66c3.84,1.13,7.06,4.01,9.36,8.3.48-10.54.86-21.32,1.08-30.25,1.77,8.42,4.16,18.02,7.57,30.43l10.72,38.68c.68,2.44,2.59,4.07,4.78,4.07h.81c2.13,0,4.04-1.59,4.74-3.95l11.76-39.58c3.31-11.1,6.05-21.07,8.33-30.34.04,10.66.61,23.96,1.09,34.86l1.59,33.94c.15,3.14,2.35,5.6,5.02,5.6h.23c1.09,0,2.13-.4,3-1.16,1.37-1.2,2.12-3.11,2.02-5.13l-3.97-78.08Z"/>
  <g>
    <path class="cls-2" d="m35.82,28.98c24.88,9.59,40.11,7.05,76.65-15.71,29.44-18.33,27.61,8.55,3.81,34.51-23.81,25.96-10.89,60.31,22.38,30.72,11.43-10,21.43,35.23-11.43,50.47-32.85,15.24-92.84-5.71-124.27-91.41C-7.98,5.65,13.26,20.29,35.82,28.98Z"/>
    <ellipse class="cls-4" cx="62.12" cy="15.08" rx="28.25" ry="15.08"/>
  </g>
  <text class="cls-7" transform="translate(196.03 139.86) rotate(3.72) scale(1.23 1)"><tspan x="0" y="0">KidsMinds</tspan></text>
</svg>