<?xml version="1.0" encoding="UTF-8"?>
<svg id="Layer_1" data-name="Layer 1" xmlns="http://www.w3.org/2000/svg" xmlns:xlink="http://www.w3.org/1999/xlink" viewBox="0 0 581.64 146.31">
  <defs>
    <style>
      .cls-1 {
        fill: url(#linear-gradient-2);
      }

      .cls-2 {
        fill: url(#linear-gradient-15);
      }

      .cls-3 {
        fill: url(#linear-gradient-14);
      }

      .cls-4 {
        fill: url(#linear-gradient-6);
      }

      .cls-5 {
        fill: url(#linear-gradient-11);
      }

      .cls-6 {
        fill: url(#linear-gradient-10);
      }

      .cls-7 {
        fill: url(#linear-gradient-5);
      }

      .cls-8 {
        fill: url(#linear-gradient-7);
      }

      .cls-9 {
        fill: url(#linear-gradient-9);
      }

      .cls-10 {
        fill: url(#linear-gradient-3);
      }

      .cls-11 {
        fill: url(#linear-gradient);
      }

      .cls-12 {
        fill: url(#linear-gradient-4);
      }

      .cls-13 {
        fill: url(#linear-gradient-8);
      }

      .cls-14 {
        fill: url(#linear-gradient-12);
      }

      .cls-15 {
        fill: url(#linear-gradient-13);
      }
    </style>
    <linearGradient id="linear-gradient" x1="116.7" y1="50.46" x2="239.94" y2="50.46" gradientUnits="userSpaceOnUse">
      <stop offset=".02" stop-color="#ee2a7b"/>
      <stop offset=".43" stop-color="#8762ac"/>
      <stop offset="1" stop-color="#00aeef"/>
    </linearGradient>
    <linearGradient id="linear-gradient-2" x1="158.98" y1="114.28" x2="201.67" y2="114.28" xlink:href="#linear-gradient"/>
    <linearGradient id="linear-gradient-3" x1="163.41" y1="127.64" x2="195.59" y2="127.64" xlink:href="#linear-gradient"/>
    <linearGradient id="linear-gradient-4" x1="169.38" y1="141" x2="189.62" y2="141" xlink:href="#linear-gradient"/>
    <linearGradient id="linear-gradient-5" x1="0" y1="70.38" x2="149.56" y2="70.38" xlink:href="#linear-gradient"/>
    <linearGradient id="linear-gradient-6" x1="33.87" y1="15.08" x2="90.37" y2="15.08" xlink:href="#linear-gradient"/>
    <linearGradient id="linear-gradient-7" x1="156.93" y1="63.78" x2="217.8" y2="63.78" xlink:href="#linear-gradient"/>
    <linearGradient id="linear-gradient-8" x1="242.84" y1="58.21" x2="263.21" y2="58.21" xlink:href="#linear-gradient"/>
    <linearGradient id="linear-gradient-9" x1="266.34" y1="59.62" x2="312.45" y2="59.62" xlink:href="#linear-gradient"/>
    <linearGradient id="linear-gradient-10" x1="312.45" y1="56.28" x2="347.59" y2="56.28" xlink:href="#linear-gradient"/>
    <linearGradient id="linear-gradient-11" x1="367.97" y1="59.23" x2="426.31" y2="59.23" xlink:href="#linear-gradient"/>
    <linearGradient id="linear-gradient-12" x1="429.69" y1="60.61" x2="448" y2="60.61" xlink:href="#linear-gradient"/>
    <linearGradient id="linear-gradient-13" x1="450.95" y1="58.46" x2="493.64" y2="58.46" xlink:href="#linear-gradient"/>
    <linearGradient id="linear-gradient-14" x1="497.08" y1="58.92" x2="543.18" y2="58.92" xlink:href="#linear-gradient"/>
    <linearGradient id="linear-gradient-15" x1="546.5" y1="60.02" x2="581.64" y2="60.02" xlink:href="#linear-gradient"/>
  </defs>
  <path class="cls-11" d="m178.32,2.96c-33.98,0-61.62,23.6-61.62,52.61,0,16.67,9.27,32.32,24.9,42.24l.5-10.43c-9.88-8.03-16.04-19.3-16.04-31.8,0-24.38,23.4-44.14,52.26-44.14s52.26,19.76,52.26,44.14c0,12.58-6.24,23.92-16.23,31.95l.44,10.43c15.75-9.89,25.14-25.71,25.14-42.39,0-29.01-27.64-52.61-61.62-52.61Z"/>
  <g>
    <rect class="cls-1" x="158.98" y="108.97" width="42.69" height="10.62" rx="5.31" ry="5.31"/>
    <rect class="cls-10" x="163.41" y="122.33" width="32.18" height="10.62" rx="5.31" ry="5.31"/>
    <rect class="cls-12" x="169.38" y="135.69" width="20.24" height="10.62" rx="5.31" ry="5.31"/>
  </g>
  <g>
    <path class="cls-7" d="m35.82,28.98c24.88,9.59,40.11,7.05,76.65-15.71,29.44-18.33,27.61,8.55,3.81,34.51-23.81,25.96-10.89,60.31,22.38,30.72,11.43-10,21.43,35.23-11.43,50.47-32.85,15.24-92.84-5.71-124.27-91.41C-7.98,5.65,13.26,20.29,35.82,28.98Z"/>
    <ellipse class="cls-4" cx="62.12" cy="15.08" rx="28.25" ry="15.08"/>
  </g>
  <path class="cls-8" d="m180.1,79.6c-2.5,8.75-.1,23.75-13.66,23.75-4.71,0-9.52-2.59-9.52-7.89,0-10,.87-21.35,2.02-31.25,1.15-9.81.48-19.62.48-29.43,0-6.35,4.23-10.58,10.67-10.58,13.08,0,11.44,16.06,11.44,24.81,0,2.21,2.31,2.11,3.65,1.35,11.06-6.63,8.75-23.95,19.72-23.95,6.25,0,10.96,4.71,10.96,10.97,0,11.92-15.58,21.83-15.58,28.94,0,9.23,17.5,15.29,17.5,24.33,0,5.1-3.94,10.2-9.42,10.2-17.22,0-22.41-23.08-26.54-23.08-.96,0-1.54,1.06-1.73,1.83Zm31.83-42.8c0-1.44-1.06-2.69-2.6-2.69s-2.69,1.15-2.69,2.69,1.15,2.69,2.69,2.69,2.6-1.25,2.6-2.69Z"/>
  <path class="cls-13" d="m255.35,28.14c5.57,0,7.86,3.77,7.86,9.01,0,9.47-2.82,37.89-5.42,45.97-.99,3.08-3.81,5.16-7.02,5.16-5.72,0-7.32-5.01-7.71-10.09-.76-12.78.53-30.73,2.97-43.36.84-4.39,5.11-6.7,9.31-6.7Zm5.42,8.16c0-1.23-.92-2.23-2.14-2.23s-2.21.92-2.21,2.23c0,1.23.99,2.16,2.21,2.16s2.14-1,2.14-2.16Z"/>
  <path class="cls-9" d="m279.17,88.11c-1.44,0-2.88,1.1-4.6,1.1-6.18,0-7.76-2.95-7.76-8.58,0-4.12.69-8.1.76-12.15.07-4.32.07-8.65.07-12.9,0-1.85.07-3.64,0-5.42-.07-3.23-1.3-6.31-1.3-9.54,0-4.39,3.02-7.62,7.41-7.62,1.65,0,3.23.62,4.74.62.75,0,5.28-4.26,11.46-4.26,31.64,0,28.76,60.53-1.44,60.53-3.36,0-6.73-1.79-9.34-1.79Zm6.86-13.04c10.23,0,13.45-31.92,3.43-31.92-3.23,0-8.1,6.18-8.1,9.2,0,7.07-.41,14-.41,21,0,1.72,3.84,1.72,5.08,1.72Zm11.32-39.4c0-1.1-.82-1.99-1.92-1.99s-1.85.89-1.85,1.99c0,1.03.76,1.92,1.85,1.92s1.92-.89,1.92-1.92Z"/>
  <path class="cls-6" d="m347.59,41.38c0,5.08-2.81,7.62-7.89,7.62-6.73,0-4.05-8.37-9.95-8.37-2.33,0-3.77,1.3-3.77,3.43,0,5.22,10.16,6.59,16.61,13.66,10.43,11.6,1.3,26.7-12.28,26.7-6.38,0-16.47-4.8-16.47-11.53,0-5.22,6.24-10.91,11.73-7.41.96.62,1.72,1.71,2.47,2.74,3.71,4.94,8.3,1.03,3.43-3.29-5.29-4.87-19.01-8.1-19.01-20.25,0-10.36,8.92-16.54,19.7-16.54,6.86,0,15.44,6.73,15.44,13.25Zm-7.76-7.07c0-1.03-.82-1.85-1.92-1.85-1.17,0-2.06.75-2.06,1.85,0,1.03.89,1.85,2.06,1.85,1.1,0,1.92-.89,1.92-1.85Z"/>
  <path class="cls-5" d="m368.11,81.71v-26.77c0-6.59-1.85-24.3,8.1-24.3,5.77,0,7.07,2.88,9.27,7.07,3.02,5.83,7,14.83,10.78,19.42,5.22-7.48,9.61-15.17,14.48-22.79,1.37-2.2,3.84-3.09,6.31-3.09,3.91,0,6.18,2.47,6.73,6.18,1.37,9.33,1.24,18.6,1.65,27.93.21,3.98.89,10.16.89,14.21,0,6.59-4.6,7.96-10.29,7.96-4.26,0-7.76-2.4-7.76-6.86,0-6.04.82-14.48,1.03-20.52-3.91,3.84-5.9,12.56-12.9,12.56-4.67,0-8.58-7.48-11.26-10.84-.21.76-.28,1.51-.28,2.26,0,4.39.48,11.05.48,15.44,0,5.42-3.98,8.24-9.06,8.24-3.71,0-8.17-1.85-8.17-6.11Zm52.64-44.61c0-1.03-.76-1.79-1.71-1.79-1.03,0-1.79.76-1.79,1.79,0,.96.76,1.71,1.79,1.71.96,0,1.71-.76,1.71-1.71Z"/>
  <path class="cls-14" d="m440.93,33.81c5.01,0,7.07,3.36,7.07,8.03,0,8.44-2.54,33.77-4.87,40.97-.89,2.75-3.43,4.6-6.31,4.6-5.15,0-6.59-4.46-6.93-8.99-.69-11.39.48-27.38,2.68-38.64.76-3.91,4.6-5.97,8.37-5.97Zm4.87,7.27c0-1.1-.82-1.99-1.92-1.99s-1.99.82-1.99,1.99c0,1.1.89,1.92,1.99,1.92s1.92-.89,1.92-1.92Z"/>
  <path class="cls-15" d="m466.26,63.87c0,3.77.62,7.55.62,11.39,0,6.73.14,10.91-8.24,10.91-2.74,0-5.76-.82-6.52-3.71-1.24-4.39-1.17-34.45-1.17-42.28,0-5.42,2.4-8.37,8.03-8.37,3.71,0,6.11,2.13,7.07,5.63,1.79,6.38,6.18,17.3,10.43,22.37,0-1.3.14-2.54.14-3.84,0-7.82-2.06-25.6,9.2-25.6,3.98,0,7.82,1.44,7.82,6.04,0,3.43-1.1,6.86-1.51,10.29-.48,3.84-.48,19.56,1.3,30.95,1.65,10.57-13.8,11.6-16.47,3.71-2.75-8.1-7.76-17.3-10.57-18.94-.07.48-.14.96-.14,1.44Zm23.95-26.63c0-1.03-.76-1.85-1.79-1.85s-1.65.89-1.65,1.85c0,.89.62,1.78,1.65,1.78s1.79-.82,1.79-1.78Z"/>
  <path class="cls-3" d="m509.91,87.41c-1.44,0-2.88,1.1-4.6,1.1-6.18,0-7.76-2.95-7.76-8.58,0-4.12.69-8.1.76-12.15.07-4.32.07-8.65.07-12.9,0-1.85.07-3.64,0-5.42-.07-3.23-1.3-6.31-1.3-9.54,0-4.39,3.02-7.62,7.41-7.62,1.65,0,3.23.62,4.74.62.75,0,5.29-4.26,11.46-4.26,31.64,0,28.76,60.53-1.44,60.53-3.36,0-6.73-1.79-9.34-1.79Zm6.86-13.04c10.23,0,13.45-31.92,3.43-31.92-3.23,0-8.1,6.18-8.1,9.2,0,7.07-.41,14-.41,21,0,1.72,3.84,1.72,5.08,1.72Zm11.32-39.4c0-1.1-.82-1.99-1.92-1.99s-1.85.89-1.85,1.99c0,1.03.76,1.92,1.85,1.92s1.92-.89,1.92-1.92Z"/>
  <path class="cls-2" d="m581.64,45.13c0,5.08-2.81,7.62-7.89,7.62-6.73,0-4.05-8.37-9.95-8.37-2.33,0-3.77,1.3-3.77,3.43,0,5.22,10.16,6.59,16.61,13.66,10.43,11.6,1.3,26.7-12.28,26.7-6.38,0-16.47-4.8-16.47-11.53,0-5.22,6.24-10.91,11.73-7.41.96.62,1.72,1.71,2.47,2.74,3.71,4.94,8.3,1.03,3.43-3.29-5.29-4.87-19.01-8.1-19.01-20.25,0-10.36,8.92-16.54,19.7-16.54,6.86,0,15.44,6.73,15.44,13.25Zm-7.76-7.07c0-1.03-.82-1.85-1.92-1.85-1.17,0-2.06.75-2.06,1.85,0,1.03.89,1.85,2.06,1.85,1.1,0,1.92-.89,1.92-1.85Z"/>
</svg>